# xmcd
#
# Track frame offsets:
#        150
#        11402
#        26405
#        35872
#        70522
#        85185
#        91877
#        105237
#        121715
#        126467
#        146807
#        164887
#
# Disc length: 2418 seconds
#
# Revision: 1
# Processed by: cddbd v1.5PL3 Copyright (c) Steve Scherf et al.
# Submitted via: ExactAudioCopy v0.95a4
#
DISCID=9a09700c
DTITLE=DAFFODIL-19 - Circuit
DYEAR=2003
DGENRE=
TTITLE0=sleepyhead
TTITLE1=crimson star
TTITLE2=re-creation
TTITLE3=memory circuit
TTITLE4=stick boy
TTITLE5=marcus#5
TTITLE6=somnambulistic ray
TTITLE7=larkspur blue
TTITLE8=honey blue
TTITLE9=launderette
TTITLE10=i don't believe in happy endings
TTITLE11=vermilion sands
EXTD=
EXTT0=
EXTT1=
EXTT2=
EXTT3=
EXTT4=
EXTT5=
EXTT6=
EXTT7=
EXTT8=
EXTT9=
EXTT10=
EXTT11=
PLAYORDER=
